<mxfile host="app.diagrams.net" modified="2020-08-11T03:15:18.258Z" agent="5.0 (Windows NT 10.0; Win64; x64) AppleWebKit/537.36 (KHTML, like Gecko) Chrome/77.0.3865.120 Safari/537.36" etag="k2dxySyPGRKQKDpdcCFI" version="13.6.2" type="github">
  <diagram id="Z2qPJMqLsnem5SNGlnY9" name="第 1 页">
    <mxGraphModel dx="1422" dy="794" grid="1" gridSize="10" guides="1" tooltips="1" connect="1" arrows="1" fold="1" page="1" pageScale="1" pageWidth="827" pageHeight="1169" math="0" shadow="0">
      <root>
        <mxCell id="0" />
        <mxCell id="1" parent="0" />
        <mxCell id="jZKrDloeTmCHNh3HeZwb-10" value="" style="rounded=0;whiteSpace=wrap;html=1;" parent="1" vertex="1">
          <mxGeometry x="480" y="680" width="160" height="340" as="geometry" />
        </mxCell>
        <mxCell id="jZKrDloeTmCHNh3HeZwb-9" value="" style="rounded=0;whiteSpace=wrap;html=1;" parent="1" vertex="1">
          <mxGeometry x="160" y="680" width="160" height="340" as="geometry" />
        </mxCell>
        <mxCell id="jZKrDloeTmCHNh3HeZwb-75" value="" style="rounded=1;whiteSpace=wrap;html=1;dashed=1;" parent="1" vertex="1">
          <mxGeometry x="170" y="900" width="460" height="110" as="geometry" />
        </mxCell>
        <mxCell id="jZKrDloeTmCHNh3HeZwb-56" value="" style="rounded=1;whiteSpace=wrap;html=1;dashed=1;" parent="1" vertex="1">
          <mxGeometry x="170" y="780" width="460" height="60" as="geometry" />
        </mxCell>
        <mxCell id="jZKrDloeTmCHNh3HeZwb-5" value="tracker" style="rounded=1;whiteSpace=wrap;html=1;" parent="1" vertex="1">
          <mxGeometry x="180" y="790" width="120" height="40" as="geometry" />
        </mxCell>
        <mxCell id="jZKrDloeTmCHNh3HeZwb-6" value="storage" style="rounded=1;whiteSpace=wrap;html=1;" parent="1" vertex="1">
          <mxGeometry x="180" y="910" width="120" height="90" as="geometry" />
        </mxCell>
        <mxCell id="jZKrDloeTmCHNh3HeZwb-7" value="nginx+module" style="rounded=1;whiteSpace=wrap;html=1;" parent="1" vertex="1">
          <mxGeometry x="180" y="690" width="120" height="40" as="geometry" />
        </mxCell>
        <mxCell id="jZKrDloeTmCHNh3HeZwb-11" value="nginx+module" style="rounded=1;whiteSpace=wrap;html=1;" parent="1" vertex="1">
          <mxGeometry x="500" y="690" width="120" height="40" as="geometry" />
        </mxCell>
        <mxCell id="jZKrDloeTmCHNh3HeZwb-12" value="tracker" style="rounded=1;whiteSpace=wrap;html=1;" parent="1" vertex="1">
          <mxGeometry x="500" y="790" width="120" height="40" as="geometry" />
        </mxCell>
        <mxCell id="jZKrDloeTmCHNh3HeZwb-13" value="storage" style="rounded=1;whiteSpace=wrap;html=1;" parent="1" vertex="1">
          <mxGeometry x="500" y="910" width="120" height="90" as="geometry" />
        </mxCell>
        <mxCell id="jZKrDloeTmCHNh3HeZwb-15" value="" style="rounded=0;whiteSpace=wrap;html=1;" parent="1" vertex="1">
          <mxGeometry x="334" y="260" width="160" height="280" as="geometry" />
        </mxCell>
        <mxCell id="jZKrDloeTmCHNh3HeZwb-32" style="edgeStyle=orthogonalEdgeStyle;rounded=0;orthogonalLoop=1;jettySize=auto;html=1;entryX=1;entryY=0.5;entryDx=0;entryDy=0;" parent="1" source="jZKrDloeTmCHNh3HeZwb-16" edge="1">
          <mxGeometry relative="1" as="geometry">
            <mxPoint x="150" y="390" as="targetPoint" />
            <Array as="points">
              <mxPoint x="200" y="390" />
              <mxPoint x="200" y="390" />
            </Array>
          </mxGeometry>
        </mxCell>
        <mxCell id="jZKrDloeTmCHNh3HeZwb-16" value="nginx" style="rounded=1;whiteSpace=wrap;html=1;" parent="1" vertex="1">
          <mxGeometry x="360" y="360" width="120" height="40" as="geometry" />
        </mxCell>
        <mxCell id="jZKrDloeTmCHNh3HeZwb-22" value="" style="endArrow=classic;html=1;exitX=0.5;exitY=1;exitDx=0;exitDy=0;entryX=0.5;entryY=0;entryDx=0;entryDy=0;" parent="1" source="jZKrDloeTmCHNh3HeZwb-16" target="jZKrDloeTmCHNh3HeZwb-7" edge="1">
          <mxGeometry width="50" height="50" relative="1" as="geometry">
            <mxPoint x="390" y="600" as="sourcePoint" />
            <mxPoint x="440" y="550" as="targetPoint" />
          </mxGeometry>
        </mxCell>
        <mxCell id="jZKrDloeTmCHNh3HeZwb-23" value="" style="endArrow=classic;html=1;exitX=0.5;exitY=1;exitDx=0;exitDy=0;entryX=0.558;entryY=0.05;entryDx=0;entryDy=0;entryPerimeter=0;" parent="1" source="jZKrDloeTmCHNh3HeZwb-16" target="jZKrDloeTmCHNh3HeZwb-11" edge="1">
          <mxGeometry width="50" height="50" relative="1" as="geometry">
            <mxPoint x="390" y="600" as="sourcePoint" />
            <mxPoint x="440" y="550" as="targetPoint" />
          </mxGeometry>
        </mxCell>
        <mxCell id="jZKrDloeTmCHNh3HeZwb-29" value="" style="endArrow=classic;html=1;" parent="1" edge="1">
          <mxGeometry width="50" height="50" relative="1" as="geometry">
            <mxPoint x="149" y="380" as="sourcePoint" />
            <mxPoint x="360" y="380" as="targetPoint" />
          </mxGeometry>
        </mxCell>
        <mxCell id="jZKrDloeTmCHNh3HeZwb-33" value="request" style="text;html=1;align=center;verticalAlign=middle;resizable=0;points=[];autosize=1;" parent="1" vertex="1">
          <mxGeometry x="190" y="340" width="60" height="20" as="geometry" />
        </mxCell>
        <mxCell id="jZKrDloeTmCHNh3HeZwb-34" value="response" style="text;html=1;align=center;verticalAlign=middle;resizable=0;points=[];autosize=1;" parent="1" vertex="1">
          <mxGeometry x="190" y="420" width="60" height="20" as="geometry" />
        </mxCell>
        <mxCell id="jZKrDloeTmCHNh3HeZwb-35" value="192.168.1.233" style="text;html=1;strokeColor=none;fillColor=none;align=center;verticalAlign=middle;whiteSpace=wrap;rounded=0;" parent="1" vertex="1">
          <mxGeometry x="390" y="560" width="40" height="20" as="geometry" />
        </mxCell>
        <mxCell id="jZKrDloeTmCHNh3HeZwb-36" value="192.168.1.231" style="text;html=1;strokeColor=none;fillColor=none;align=center;verticalAlign=middle;whiteSpace=wrap;rounded=0;" parent="1" vertex="1">
          <mxGeometry x="220" y="1060" width="40" height="20" as="geometry" />
        </mxCell>
        <mxCell id="jZKrDloeTmCHNh3HeZwb-37" value="192.168.1.232" style="text;html=1;strokeColor=none;fillColor=none;align=center;verticalAlign=middle;whiteSpace=wrap;rounded=0;" parent="1" vertex="1">
          <mxGeometry x="550" y="1070" width="40" height="20" as="geometry" />
        </mxCell>
        <mxCell id="jZKrDloeTmCHNh3HeZwb-45" value="" style="endArrow=classic;startArrow=classic;html=1;exitX=1;exitY=0.5;exitDx=0;exitDy=0;" parent="1" source="jZKrDloeTmCHNh3HeZwb-5" target="jZKrDloeTmCHNh3HeZwb-12" edge="1">
          <mxGeometry width="50" height="50" relative="1" as="geometry">
            <mxPoint x="390" y="760" as="sourcePoint" />
            <mxPoint x="440" y="710" as="targetPoint" />
          </mxGeometry>
        </mxCell>
        <mxCell id="jZKrDloeTmCHNh3HeZwb-46" value="&lt;span&gt;TrackerCluster&lt;/span&gt;" style="text;html=1;strokeColor=none;fillColor=none;align=center;verticalAlign=middle;whiteSpace=wrap;rounded=0;" parent="1" vertex="1">
          <mxGeometry x="374" y="780" width="40" height="20" as="geometry" />
        </mxCell>
        <mxCell id="jZKrDloeTmCHNh3HeZwb-48" value="" style="endArrow=classic;startArrow=classic;html=1;exitX=1;exitY=0.5;exitDx=0;exitDy=0;entryX=0;entryY=0.5;entryDx=0;entryDy=0;" parent="1" source="jZKrDloeTmCHNh3HeZwb-6" target="jZKrDloeTmCHNh3HeZwb-13" edge="1">
          <mxGeometry width="50" height="50" relative="1" as="geometry">
            <mxPoint x="334" y="930" as="sourcePoint" />
            <mxPoint x="384" y="880" as="targetPoint" />
          </mxGeometry>
        </mxCell>
        <mxCell id="jZKrDloeTmCHNh3HeZwb-50" value="client" style="rounded=1;whiteSpace=wrap;html=1;" parent="1" vertex="1">
          <mxGeometry x="20" y="800" width="90" height="40" as="geometry" />
        </mxCell>
        <mxCell id="jZKrDloeTmCHNh3HeZwb-52" value="" style="endArrow=classic;html=1;exitX=0.5;exitY=1;exitDx=0;exitDy=0;entryX=0.5;entryY=0;entryDx=0;entryDy=0;" parent="1" source="jZKrDloeTmCHNh3HeZwb-5" target="jZKrDloeTmCHNh3HeZwb-6" edge="1">
          <mxGeometry width="50" height="50" relative="1" as="geometry">
            <mxPoint x="390" y="760" as="sourcePoint" />
            <mxPoint x="440" y="710" as="targetPoint" />
          </mxGeometry>
        </mxCell>
        <mxCell id="jZKrDloeTmCHNh3HeZwb-53" value="" style="endArrow=classic;html=1;exitX=0.5;exitY=1;exitDx=0;exitDy=0;entryX=0.5;entryY=0;entryDx=0;entryDy=0;" parent="1" source="jZKrDloeTmCHNh3HeZwb-5" target="jZKrDloeTmCHNh3HeZwb-13" edge="1">
          <mxGeometry width="50" height="50" relative="1" as="geometry">
            <mxPoint x="390" y="760" as="sourcePoint" />
            <mxPoint x="440" y="710" as="targetPoint" />
          </mxGeometry>
        </mxCell>
        <mxCell id="jZKrDloeTmCHNh3HeZwb-54" value="" style="endArrow=classic;html=1;exitX=0.5;exitY=1;exitDx=0;exitDy=0;entryX=0.5;entryY=0;entryDx=0;entryDy=0;" parent="1" source="jZKrDloeTmCHNh3HeZwb-12" target="jZKrDloeTmCHNh3HeZwb-13" edge="1">
          <mxGeometry width="50" height="50" relative="1" as="geometry">
            <mxPoint x="390" y="760" as="sourcePoint" />
            <mxPoint x="440" y="710" as="targetPoint" />
          </mxGeometry>
        </mxCell>
        <mxCell id="jZKrDloeTmCHNh3HeZwb-55" value="" style="endArrow=classic;html=1;exitX=0.5;exitY=1;exitDx=0;exitDy=0;entryX=0.5;entryY=0;entryDx=0;entryDy=0;" parent="1" source="jZKrDloeTmCHNh3HeZwb-12" target="jZKrDloeTmCHNh3HeZwb-6" edge="1">
          <mxGeometry width="50" height="50" relative="1" as="geometry">
            <mxPoint x="390" y="760" as="sourcePoint" />
            <mxPoint x="440" y="710" as="targetPoint" />
          </mxGeometry>
        </mxCell>
        <mxCell id="jZKrDloeTmCHNh3HeZwb-63" value="group1" style="rounded=1;whiteSpace=wrap;html=1;dashed=1;" parent="1" vertex="1">
          <mxGeometry x="200" y="920" width="80" height="20" as="geometry" />
        </mxCell>
        <mxCell id="jZKrDloeTmCHNh3HeZwb-64" value="group1" style="rounded=1;whiteSpace=wrap;html=1;dashed=1;" parent="1" vertex="1">
          <mxGeometry x="520" y="920" width="80" height="20" as="geometry" />
        </mxCell>
        <mxCell id="jZKrDloeTmCHNh3HeZwb-73" value="" style="endArrow=classic;html=1;exitX=1;exitY=0.25;exitDx=0;exitDy=0;" parent="1" source="jZKrDloeTmCHNh3HeZwb-50" target="jZKrDloeTmCHNh3HeZwb-56" edge="1">
          <mxGeometry width="50" height="50" relative="1" as="geometry">
            <mxPoint x="390" y="760" as="sourcePoint" />
            <mxPoint x="440" y="710" as="targetPoint" />
          </mxGeometry>
        </mxCell>
        <mxCell id="jZKrDloeTmCHNh3HeZwb-74" value="" style="endArrow=classic;html=1;exitX=0;exitY=0.633;exitDx=0;exitDy=0;exitPerimeter=0;entryX=1;entryY=0.5;entryDx=0;entryDy=0;" parent="1" source="jZKrDloeTmCHNh3HeZwb-56" target="jZKrDloeTmCHNh3HeZwb-50" edge="1">
          <mxGeometry width="50" height="50" relative="1" as="geometry">
            <mxPoint x="50" y="910" as="sourcePoint" />
            <mxPoint x="100" y="860" as="targetPoint" />
          </mxGeometry>
        </mxCell>
        <mxCell id="jZKrDloeTmCHNh3HeZwb-77" style="edgeStyle=orthogonalEdgeStyle;rounded=0;orthogonalLoop=1;jettySize=auto;html=1;exitX=0.5;exitY=1;exitDx=0;exitDy=0;" parent="1" source="jZKrDloeTmCHNh3HeZwb-75" target="jZKrDloeTmCHNh3HeZwb-75" edge="1">
          <mxGeometry relative="1" as="geometry" />
        </mxCell>
        <mxCell id="jZKrDloeTmCHNh3HeZwb-78" value="StorageCluster" style="text;html=1;strokeColor=none;fillColor=none;align=center;verticalAlign=middle;whiteSpace=wrap;rounded=0;dashed=1;" parent="1" vertex="1">
          <mxGeometry x="373.5" y="960" width="40" height="20" as="geometry" />
        </mxCell>
        <mxCell id="jZKrDloeTmCHNh3HeZwb-79" value="" style="endArrow=classic;html=1;exitX=1;exitY=1;exitDx=0;exitDy=0;entryX=0;entryY=0.25;entryDx=0;entryDy=0;" parent="1" source="jZKrDloeTmCHNh3HeZwb-50" target="jZKrDloeTmCHNh3HeZwb-75" edge="1">
          <mxGeometry width="50" height="50" relative="1" as="geometry">
            <mxPoint x="390" y="760" as="sourcePoint" />
            <mxPoint x="440" y="710" as="targetPoint" />
          </mxGeometry>
        </mxCell>
        <mxCell id="jZKrDloeTmCHNh3HeZwb-80" value="" style="endArrow=classic;html=1;exitX=0.002;exitY=0.4;exitDx=0;exitDy=0;exitPerimeter=0;entryX=0.889;entryY=1.15;entryDx=0;entryDy=0;entryPerimeter=0;" parent="1" source="jZKrDloeTmCHNh3HeZwb-75" target="jZKrDloeTmCHNh3HeZwb-50" edge="1">
          <mxGeometry width="50" height="50" relative="1" as="geometry">
            <mxPoint x="390" y="760" as="sourcePoint" />
            <mxPoint x="440" y="710" as="targetPoint" />
          </mxGeometry>
        </mxCell>
        <mxCell id="jZKrDloeTmCHNh3HeZwb-82" value="" style="endArrow=classic;startArrow=classic;html=1;dashed=1;entryX=0;entryY=0.5;entryDx=0;entryDy=0;" parent="1" target="jZKrDloeTmCHNh3HeZwb-64" edge="1">
          <mxGeometry width="50" height="50" relative="1" as="geometry">
            <mxPoint x="280" y="930" as="sourcePoint" />
            <mxPoint x="330" y="880" as="targetPoint" />
          </mxGeometry>
        </mxCell>
        <mxCell id="jZKrDloeTmCHNh3HeZwb-84" value="replicaiton" style="text;html=1;strokeColor=none;fillColor=none;align=center;verticalAlign=middle;whiteSpace=wrap;rounded=0;dashed=1;" parent="1" vertex="1">
          <mxGeometry x="380" y="910" width="40" height="20" as="geometry" />
        </mxCell>
        <mxCell id="jZKrDloeTmCHNh3HeZwb-85" value="" style="endArrow=classic;html=1;exitX=0.5;exitY=1;exitDx=0;exitDy=0;entryX=0.5;entryY=0;entryDx=0;entryDy=0;" parent="1" source="jZKrDloeTmCHNh3HeZwb-7" target="jZKrDloeTmCHNh3HeZwb-5" edge="1">
          <mxGeometry width="50" height="50" relative="1" as="geometry">
            <mxPoint x="390" y="760" as="sourcePoint" />
            <mxPoint x="440" y="710" as="targetPoint" />
          </mxGeometry>
        </mxCell>
        <mxCell id="jZKrDloeTmCHNh3HeZwb-86" value="" style="endArrow=classic;html=1;entryX=0.5;entryY=0;entryDx=0;entryDy=0;" parent="1" target="jZKrDloeTmCHNh3HeZwb-12" edge="1">
          <mxGeometry width="50" height="50" relative="1" as="geometry">
            <mxPoint x="240" y="730" as="sourcePoint" />
            <mxPoint x="440" y="710" as="targetPoint" />
          </mxGeometry>
        </mxCell>
        <mxCell id="jZKrDloeTmCHNh3HeZwb-87" value="" style="endArrow=classic;html=1;exitX=0.5;exitY=1;exitDx=0;exitDy=0;entryX=0.5;entryY=0;entryDx=0;entryDy=0;" parent="1" source="jZKrDloeTmCHNh3HeZwb-11" target="jZKrDloeTmCHNh3HeZwb-5" edge="1">
          <mxGeometry width="50" height="50" relative="1" as="geometry">
            <mxPoint x="390" y="760" as="sourcePoint" />
            <mxPoint x="440" y="710" as="targetPoint" />
          </mxGeometry>
        </mxCell>
        <mxCell id="jZKrDloeTmCHNh3HeZwb-88" value="" style="endArrow=classic;html=1;exitX=0.5;exitY=1;exitDx=0;exitDy=0;entryX=0.5;entryY=0;entryDx=0;entryDy=0;" parent="1" source="jZKrDloeTmCHNh3HeZwb-11" target="jZKrDloeTmCHNh3HeZwb-12" edge="1">
          <mxGeometry width="50" height="50" relative="1" as="geometry">
            <mxPoint x="390" y="760" as="sourcePoint" />
            <mxPoint x="440" y="710" as="targetPoint" />
          </mxGeometry>
        </mxCell>
        <mxCell id="jZKrDloeTmCHNh3HeZwb-89" value="upload/download" style="shape=parallelogram;perimeter=parallelogramPerimeter;whiteSpace=wrap;html=1;fixedSize=1;rounded=1;" parent="1" vertex="1">
          <mxGeometry x="20" y="570" width="120" height="60" as="geometry" />
        </mxCell>
        <mxCell id="jZKrDloeTmCHNh3HeZwb-91" value="HttpRequest" style="shape=parallelogram;perimeter=parallelogramPerimeter;whiteSpace=wrap;html=1;fixedSize=1;rounded=1;" parent="1" vertex="1">
          <mxGeometry x="40" y="360" width="120" height="60" as="geometry" />
        </mxCell>
        <mxCell id="jZKrDloeTmCHNh3HeZwb-96" value="" style="endArrow=classic;html=1;exitX=0.25;exitY=1;exitDx=0;exitDy=0;" parent="1" source="jZKrDloeTmCHNh3HeZwb-89" edge="1">
          <mxGeometry width="50" height="50" relative="1" as="geometry">
            <mxPoint x="10" y="720" as="sourcePoint" />
            <mxPoint x="50" y="800" as="targetPoint" />
          </mxGeometry>
        </mxCell>
        <mxCell id="jZKrDloeTmCHNh3HeZwb-97" value="" style="endArrow=classic;html=1;" parent="1" edge="1">
          <mxGeometry width="50" height="50" relative="1" as="geometry">
            <mxPoint x="75" y="800" as="sourcePoint" />
            <mxPoint x="74" y="630" as="targetPoint" />
          </mxGeometry>
        </mxCell>
      </root>
    </mxGraphModel>
  </diagram>
</mxfile>
